<svg width="272" height="88" viewBox="0 0 272 88" fill="none" xmlns="http://www.w3.org/2000/svg">
<path d="M178.025 53.875C182.236 53.875 185.65 50.4612 185.65 46.25C185.65 42.0388 182.236 38.625 178.025 38.625C173.814 38.625 170.4 42.0388 170.4 46.25C170.4 50.4612 173.814 53.875 178.025 53.875Z" fill="#F16430"/>
<g clip-path="url(#clip0_6_117)">
<path d="M149.292 70.2674H152.29V71.8022H147.306V65.7648H152.184V67.2996H149.298V70.2674H149.292ZM149.157 68.0076H151.829V69.4745H149.157V68.0076Z" fill="white"/>
<path d="M155.525 71.9381C155.024 71.9381 154.535 71.8815 154.068 71.7682C153.601 71.655 153.213 71.502 152.909 71.3208L153.562 69.8369C153.849 70.0012 154.164 70.1371 154.518 70.2391C154.867 70.341 155.21 70.392 155.542 70.392C155.739 70.392 155.891 70.3806 155.997 70.3523C156.11 70.324 156.189 70.29 156.239 70.2391C156.29 70.1881 156.318 70.1314 156.318 70.0635C156.318 69.9559 156.256 69.8709 156.138 69.803C156.02 69.7407 155.857 69.684 155.66 69.6444C155.463 69.5991 155.249 69.5538 155.013 69.5084C154.777 69.4575 154.546 69.3952 154.304 69.3159C154.068 69.2366 153.849 69.129 153.652 68.9987C153.455 68.8684 153.297 68.6929 153.174 68.4777C153.055 68.2624 152.994 67.9906 152.994 67.6734C152.994 67.2996 153.1 66.9598 153.309 66.654C153.517 66.3481 153.826 66.0989 154.242 65.9177C154.659 65.7364 155.171 65.6402 155.789 65.6402C156.194 65.6402 156.594 65.6855 156.988 65.7704C157.381 65.8554 157.736 65.9913 158.051 66.1669L157.443 67.6394C157.145 67.4922 156.858 67.3789 156.583 67.3053C156.307 67.2317 156.037 67.192 155.772 67.192C155.576 67.192 155.424 67.209 155.311 67.243C155.199 67.277 155.114 67.3223 155.069 67.3789C155.024 67.4355 154.996 67.4978 154.996 67.5658C154.996 67.6678 155.058 67.7527 155.176 67.8093C155.294 67.8716 155.457 67.9226 155.654 67.9623C155.851 68.0019 156.071 68.0472 156.307 68.0925C156.543 68.1378 156.779 68.2001 157.016 68.2794C157.252 68.3587 157.466 68.4663 157.663 68.5966C157.859 68.7269 158.017 68.9024 158.141 69.112C158.259 69.3272 158.321 69.5877 158.321 69.9049C158.321 70.273 158.214 70.6129 158.006 70.9187C157.798 71.2245 157.488 71.4737 157.078 71.6606C156.667 71.8475 156.149 71.9438 155.525 71.9438V71.9381Z" fill="white"/>
<path d="M162.129 71.9382C161.651 71.9382 161.206 71.8645 160.796 71.7116C160.385 71.5587 160.031 71.3435 159.733 71.0603C159.435 70.7771 159.198 70.4429 159.035 70.0578C158.872 69.6727 158.788 69.2479 158.788 68.7835C158.788 68.3191 158.872 67.8943 159.035 67.5092C159.198 67.124 159.435 66.7899 159.733 66.5067C160.031 66.2235 160.385 66.0083 160.796 65.8554C161.206 65.7025 161.651 65.6288 162.129 65.6288C162.72 65.6288 163.237 65.7308 163.693 65.9403C164.149 66.1499 164.52 66.4444 164.818 66.8352L163.541 67.9849C163.367 67.7584 163.17 67.5885 162.956 67.4639C162.742 67.3393 162.5 67.277 162.23 67.277C162.017 67.277 161.825 67.3109 161.657 67.3789C161.488 67.4469 161.336 67.5488 161.218 67.6791C161.094 67.8093 160.998 67.9736 160.931 68.1605C160.863 68.3474 160.83 68.557 160.83 68.7835C160.83 69.01 160.863 69.2196 160.931 69.4065C160.998 69.5934 161.094 69.752 161.218 69.8822C161.341 70.0125 161.488 70.1145 161.657 70.1824C161.825 70.2504 162.017 70.2844 162.23 70.2844C162.5 70.2844 162.742 70.2221 162.956 70.0975C163.17 69.9729 163.367 69.7973 163.541 69.5764L164.818 70.7261C164.52 71.1113 164.143 71.4114 163.693 71.621C163.237 71.8305 162.72 71.9382 162.129 71.9382Z" fill="white"/>
<path d="M168.334 71.9381C167.417 71.9381 166.697 71.6889 166.185 71.1849C165.673 70.6865 165.414 69.9842 165.414 69.078V65.7591H167.434V69.0214C167.434 69.4801 167.518 69.8086 167.681 70.0012C167.844 70.1937 168.069 70.29 168.351 70.29C168.632 70.29 168.863 70.1937 169.026 70.0012C169.189 69.8086 169.268 69.4801 169.268 69.0214V65.7591H171.253V69.078C171.253 69.9785 170.995 70.6808 170.483 71.1849C169.971 71.6833 169.251 71.9381 168.334 71.9381Z" fill="white"/>
<path d="M174.364 70.2674H177.362V71.8022H172.378V65.7648H177.256V67.2996H174.37V70.2674H174.364ZM174.229 68.0076H176.901V69.4745H174.229V68.0076Z" fill="white"/>
<path d="M178.369 71.8022V65.7648H180.389V70.2277H183.095V71.8079H178.364L178.369 71.8022Z" fill="white"/>
<path d="M183.376 71.8022L185.997 65.7648H187.983L190.605 71.8022H188.512L186.577 66.7276H187.364L185.429 71.8022H183.37H183.376ZM184.934 70.7488L185.446 69.2819H188.203L188.714 70.7488H184.929H184.934Z" fill="white"/>
<path d="M193.676 71.8022V65.7648H196.562C197.124 65.7648 197.608 65.8554 198.013 66.0423C198.418 66.2292 198.739 66.4897 198.958 66.8295C199.183 67.1694 199.29 67.5771 199.29 68.0416C199.29 68.506 199.178 68.9081 198.958 69.2479C198.733 69.5877 198.418 69.8483 198.013 70.0352C197.603 70.2221 197.119 70.3183 196.562 70.3183H194.795L195.696 69.4461V71.8022H193.676ZM195.696 69.6727L194.795 68.7495H196.432C196.714 68.7495 196.922 68.6872 197.051 68.557C197.186 68.4324 197.254 68.2568 197.254 68.0416C197.254 67.8263 197.186 67.6508 197.051 67.5262C196.916 67.4016 196.708 67.3393 196.432 67.3393H194.795L195.696 66.4161V69.6784V69.6727Z" fill="white"/>
<path d="M200.089 71.8022V65.7648H202.975C203.537 65.7648 204.021 65.8554 204.426 66.0423C204.831 66.2292 205.152 66.4897 205.371 66.8295C205.596 67.1694 205.703 67.5771 205.703 68.0416C205.703 68.506 205.59 68.9081 205.371 69.2423C205.146 69.5764 204.831 69.8369 204.426 70.0125C204.015 70.1937 203.532 70.2787 202.975 70.2787H201.208L202.108 69.4405V71.7966H200.089V71.8022ZM202.108 69.6727L201.208 68.7495H202.845C203.127 68.7495 203.335 68.6872 203.464 68.557C203.599 68.4324 203.667 68.2568 203.667 68.0416C203.667 67.8263 203.599 67.6508 203.464 67.5262C203.329 67.4016 203.121 67.3393 202.845 67.3393H201.208L202.108 66.4161V69.6784V69.6727ZM203.678 71.8022L202.204 69.6047H204.347L205.838 71.8022H203.678Z" fill="white"/>
<path d="M209.675 71.9381C209.185 71.9381 208.729 71.8588 208.319 71.7059C207.903 71.553 207.548 71.3321 207.244 71.0433C206.941 70.7601 206.704 70.4259 206.536 70.0408C206.367 69.6557 206.282 69.2366 206.282 68.7835C206.282 68.3304 206.367 67.9 206.536 67.5205C206.704 67.141 206.941 66.8069 207.244 66.518C207.548 66.2348 207.908 66.014 208.319 65.8554C208.735 65.7025 209.185 65.6232 209.669 65.6232C210.153 65.6232 210.614 65.7025 211.025 65.8554C211.435 66.0083 211.795 66.2292 212.093 66.518C212.397 66.8012 212.633 67.1354 212.802 67.5205C212.971 67.9056 213.055 68.3247 213.055 68.7835C213.055 69.2422 212.971 69.6557 212.802 70.0408C212.633 70.4259 212.397 70.7601 212.093 71.0433C211.79 71.3265 211.435 71.5473 211.025 71.7059C210.614 71.8588 210.164 71.9381 209.68 71.9381H209.675ZM209.669 70.29C209.86 70.29 210.035 70.256 210.198 70.1881C210.361 70.1201 210.501 70.0182 210.625 69.8879C210.749 69.7576 210.845 69.5991 210.912 69.4122C210.98 69.2253 211.013 69.0157 211.013 68.7778C211.013 68.5399 210.98 68.3304 210.912 68.1435C210.845 67.9566 210.749 67.798 210.625 67.6677C210.501 67.5375 210.361 67.4412 210.198 67.3676C210.035 67.2996 209.86 67.2656 209.669 67.2656C209.478 67.2656 209.303 67.2996 209.14 67.3676C208.977 67.4355 208.836 67.5375 208.713 67.6677C208.589 67.798 208.493 67.9566 208.426 68.1435C208.358 68.3304 208.324 68.5399 208.324 68.7778C208.324 69.0157 208.358 69.2253 208.426 69.4122C208.493 69.5991 208.589 69.7576 208.713 69.8879C208.836 70.0182 208.977 70.1144 209.14 70.1881C209.303 70.256 209.478 70.29 209.669 70.29Z" fill="white"/>
<path d="M215.941 71.8022H213.922V65.7648H218.799V67.2996H215.947V71.8022H215.941ZM215.8 68.3361H218.439V69.8709H215.8V68.3361Z" fill="white"/>
<path d="M221.617 70.2674H224.615V71.8022H219.631V65.7648H224.509V67.2996H221.623V70.2674H221.617ZM221.482 68.0076H224.154V69.4745H221.482V68.0076Z" fill="white"/>
<path d="M227.85 71.9381C227.349 71.9381 226.86 71.8815 226.393 71.7682C225.926 71.655 225.538 71.502 225.234 71.3208L225.887 69.8369C226.174 70.0012 226.489 70.1371 226.843 70.2391C227.192 70.341 227.535 70.392 227.867 70.392C228.064 70.392 228.216 70.3806 228.322 70.3523C228.435 70.324 228.514 70.29 228.564 70.2391C228.615 70.1881 228.643 70.1314 228.643 70.0635C228.643 69.9559 228.581 69.8709 228.463 69.803C228.345 69.7407 228.182 69.684 227.985 69.6444C227.788 69.5991 227.574 69.5538 227.338 69.5084C227.102 69.4575 226.871 69.3952 226.629 69.3159C226.393 69.2366 226.174 69.129 225.977 68.9987C225.78 68.8684 225.622 68.6929 225.499 68.4777C225.38 68.2624 225.319 67.9906 225.319 67.6734C225.319 67.2996 225.425 66.9598 225.634 66.654C225.842 66.3481 226.151 66.0989 226.567 65.9177C226.984 65.7364 227.496 65.6402 228.114 65.6402C228.519 65.6402 228.919 65.6855 229.312 65.7704C229.706 65.8554 230.061 65.9913 230.376 66.1669L229.768 67.6394C229.47 67.4922 229.183 67.3789 228.907 67.3053C228.632 67.2317 228.362 67.192 228.097 67.192C227.901 67.192 227.749 67.209 227.636 67.243C227.524 67.277 227.439 67.3223 227.394 67.3789C227.349 67.4355 227.321 67.4978 227.321 67.5658C227.321 67.6678 227.383 67.7527 227.501 67.8093C227.619 67.8716 227.782 67.9226 227.979 67.9623C228.176 68.0019 228.396 68.0472 228.632 68.0925C228.868 68.1378 229.104 68.2001 229.341 68.2794C229.577 68.3587 229.791 68.4663 229.988 68.5966C230.184 68.7269 230.342 68.9024 230.466 69.112C230.584 69.3272 230.646 69.5877 230.646 69.9049C230.646 70.273 230.539 70.6129 230.331 70.9187C230.123 71.2245 229.813 71.4737 229.402 71.6606C228.992 71.8475 228.474 71.9438 227.85 71.9438V71.9381Z" fill="white"/>
<path d="M231.456 71.8022V65.7648H233.475V71.8022H231.456Z" fill="white"/>
<path d="M237.75 71.9381C237.261 71.9381 236.805 71.8588 236.395 71.7059C235.978 71.553 235.624 71.3321 235.32 71.0433C235.017 70.7601 234.78 70.4259 234.612 70.0408C234.443 69.6557 234.358 69.2366 234.358 68.7835C234.358 68.3304 234.443 67.9 234.612 67.5205C234.78 67.141 235.017 66.8069 235.32 66.518C235.624 66.2348 235.984 66.014 236.395 65.8554C236.811 65.7025 237.261 65.6232 237.745 65.6232C238.229 65.6232 238.69 65.7025 239.101 65.8554C239.511 66.0083 239.871 66.2292 240.169 66.518C240.473 66.8012 240.709 67.1354 240.878 67.5205C241.047 67.9056 241.131 68.3247 241.131 68.7835C241.131 69.2422 241.047 69.6557 240.878 70.0408C240.709 70.4259 240.473 70.7601 240.169 71.0433C239.866 71.3265 239.511 71.5473 239.101 71.7059C238.69 71.8588 238.24 71.9381 237.756 71.9381H237.75ZM237.739 70.29C237.93 70.29 238.105 70.256 238.268 70.1881C238.431 70.1201 238.572 70.0182 238.696 69.8879C238.819 69.7576 238.915 69.5991 238.982 69.4122C239.05 69.2253 239.084 69.0157 239.084 68.7778C239.084 68.5399 239.05 68.3304 238.982 68.1435C238.915 67.9566 238.819 67.798 238.696 67.6677C238.572 67.5375 238.431 67.4412 238.268 67.3676C238.105 67.2996 237.93 67.2656 237.739 67.2656C237.548 67.2656 237.374 67.2996 237.21 67.3676C237.047 67.4355 236.907 67.5375 236.783 67.6677C236.659 67.798 236.564 67.9566 236.496 68.1435C236.429 68.3304 236.395 68.5399 236.395 68.7778C236.395 69.0157 236.429 69.2253 236.496 69.4122C236.564 69.5991 236.659 69.7576 236.783 69.8879C236.907 70.0182 237.047 70.1144 237.21 70.1881C237.374 70.256 237.548 70.29 237.739 70.29Z" fill="white"/>
<path d="M241.992 71.8022V65.7648H243.657L246.706 69.4405H245.935V65.7648H247.904V71.8022H246.245L243.196 68.1265H243.966V71.8022H241.998H241.992Z" fill="white"/>
<path d="M248.394 71.8022L251.015 65.7648H253.001L255.622 71.8022H253.529L251.594 66.7276H252.382L250.447 71.8022H248.388H248.394ZM249.952 70.7488L250.464 69.2819H253.22L253.732 70.7488H249.946H249.952Z" fill="white"/>
<path d="M256.117 71.8022V65.7648H258.137V70.2277H260.842V71.8079H256.112L256.117 71.8022Z" fill="white"/>
<path d="M147.306 80.8641V74.8266H150.26C150.929 74.8266 151.514 74.9512 152.026 75.1947C152.538 75.4383 152.932 75.7838 153.219 76.2312C153.506 76.6786 153.646 77.2167 153.646 77.834C153.646 78.4513 153.506 79.0007 153.219 79.4538C152.932 79.9069 152.538 80.2524 152.026 80.4959C151.514 80.7395 150.929 80.8641 150.26 80.8641H147.306ZM149.326 79.2782H150.175C150.462 79.2782 150.71 79.2216 150.923 79.114C151.137 79.0064 151.306 78.8421 151.424 78.6269C151.542 78.4117 151.604 78.1455 151.604 77.8397C151.604 77.5338 151.542 77.2733 151.424 77.0637C151.306 76.8485 151.137 76.6899 150.923 76.5823C150.71 76.4747 150.457 76.4181 150.175 76.4181H149.326V79.2839V79.2782Z" fill="white"/>
<path d="M156.498 79.3292H159.496V80.8641H154.512V74.8266H159.39V76.3614H156.504V79.3292H156.498ZM156.363 77.0694H159.035V78.5363H156.363V77.0694Z" fill="white"/>
<path d="M163.018 80.8641V74.8266H164.683L167.08 78.7685H166.208L168.537 74.8266H170.202L170.218 80.8641H168.379L168.362 77.6188H168.655L167.063 80.3203H166.174L164.514 77.6188H164.874V80.8641H163.035H163.018Z" fill="white"/>
<path d="M170.702 80.8641L173.324 74.8266H175.309L177.931 80.8641H175.838L173.903 75.7894H174.691L172.755 80.8641H170.697H170.702ZM172.26 79.8106L172.772 78.3437H175.529L176.041 79.8106H172.255H172.26Z" fill="white"/>
<path d="M178.426 80.8641V74.8266H180.091L183.14 78.5023H182.369V74.8266H184.338V80.8641H182.679L179.63 77.1883H180.4V80.8641H178.431H178.426Z" fill="white"/>
<path d="M187.499 79.3292H190.498V80.8641H185.514V74.8266H190.391V76.3614H187.505V79.3292H187.499ZM187.364 77.0694H190.036V78.5363H187.364V77.0694Z" fill="white"/>
<path d="M193.08 81C192.613 81 192.191 80.9264 191.814 80.7734C191.437 80.6205 191.122 80.3996 190.869 80.1051L191.955 78.8138C192.112 79.0064 192.27 79.1593 192.427 79.2556C192.579 79.3575 192.742 79.4085 192.905 79.4085C193.338 79.4085 193.558 79.1593 193.558 78.6552V76.3614H191.521V74.8266H195.555V78.5363C195.555 79.3632 195.341 79.9805 194.919 80.3883C194.497 80.7961 193.884 81 193.08 81Z" fill="white"/>
<path d="M199.768 81C199.279 81 198.823 80.9207 198.413 80.7678C197.996 80.6148 197.642 80.394 197.338 80.1051C197.034 79.8219 196.798 79.4878 196.629 79.1026C196.461 78.7175 196.376 78.2984 196.376 77.8453C196.376 77.3922 196.461 76.9618 196.629 76.5823C196.798 76.2029 197.034 75.8687 197.338 75.5799C197.642 75.2967 198.002 75.0758 198.413 74.9172C198.829 74.7643 199.279 74.685 199.763 74.685C200.246 74.685 200.708 74.7643 201.118 74.9172C201.529 75.0701 201.889 75.291 202.187 75.5799C202.491 75.863 202.727 76.1972 202.896 76.5823C203.065 76.9674 203.149 77.3866 203.149 77.8453C203.149 78.3041 203.065 78.7175 202.896 79.1026C202.727 79.4878 202.491 79.8219 202.187 80.1051C201.883 80.3883 201.529 80.6092 201.118 80.7678C200.708 80.9207 200.258 81 199.774 81H199.768ZM199.757 79.3518C199.948 79.3518 200.123 79.3179 200.286 79.2499C200.449 79.1819 200.59 79.08 200.713 78.9497C200.837 78.8195 200.933 78.6609 201 78.474C201.068 78.2871 201.101 78.0775 201.101 77.8397C201.101 77.6018 201.068 77.3922 201 77.2053C200.933 77.0184 200.837 76.8598 200.713 76.7296C200.59 76.5993 200.449 76.503 200.286 76.4294C200.123 76.3614 199.948 76.3275 199.757 76.3275C199.566 76.3275 199.391 76.3614 199.228 76.4294C199.065 76.4974 198.924 76.5993 198.801 76.7296C198.677 76.8598 198.581 77.0184 198.514 77.2053C198.446 77.3922 198.413 77.6018 198.413 77.8397C198.413 78.0775 198.446 78.2871 198.514 78.474C198.581 78.6609 198.677 78.8195 198.801 78.9497C198.924 79.08 199.065 79.1763 199.228 79.2499C199.391 79.3179 199.566 79.3518 199.757 79.3518Z" fill="white"/>
<path d="M179.224 53.7918C183.462 53.7918 186.897 50.3331 186.897 46.0666C186.897 41.8001 183.462 38.3414 179.224 38.3414C174.987 38.3414 171.552 41.8001 171.552 46.0666C171.552 50.3331 174.987 53.7918 179.224 53.7918Z" fill="#F16430"/>
<path d="M35.098 57.4562L47.6594 32.4059L60.2263 57.4562H79.3243L58.9663 19H36.3524L16 57.4562H35.098Z" fill="white"/>
<path d="M216.774 57.4562L229.335 32.4059L241.902 57.4562H261L240.642 19H218.028L197.676 57.4562H216.774Z" fill="white"/>
<path d="M106.084 19H86.9861V57.4562H106.084V19Z" fill="white"/>
<path d="M136.737 43.2857H105.831V57.4505H136.737V43.2857Z" fill="white"/>
<path d="M165.887 19H146.789V57.4562H165.887V19Z" fill="white"/>
<path d="M196.545 19H165.639V33.1648H196.545V19Z" fill="white"/>
</g>
<defs>
<clipPath id="clip0_6_117">
<rect width="245" height="62" fill="white" transform="translate(16 19)"/>
</clipPath>
</defs>
</svg>

