<svg width="283" height="91" viewBox="0 0 283 91" fill="none" xmlns="http://www.w3.org/2000/svg">
<path d="M185.395 56.1054C189.78 56.1054 193.336 52.5503 193.336 48.1648C193.336 43.7793 189.78 40.2241 185.395 40.2241C181.009 40.2241 177.454 43.7793 177.454 48.1648C177.454 52.5503 181.009 56.1054 185.395 56.1054Z" fill="#284259"/>
<g clip-path="url(#clip0_34_74)">
<path d="M152.997 73.5748H156.191V75.2087H150.882V68.7817H156.077V70.4156H153.003V73.5748H152.997ZM152.853 71.1692H155.7V72.7308H152.853V71.1692Z" fill="white"/>
<path d="M159.637 75.3535C159.104 75.3535 158.582 75.2932 158.085 75.1726C157.587 75.052 157.174 74.8892 156.85 74.6963L157.545 73.1167C157.851 73.2915 158.187 73.4362 158.564 73.5448C158.936 73.6533 159.301 73.7075 159.655 73.7075C159.865 73.7075 160.026 73.6955 160.14 73.6653C160.26 73.6352 160.344 73.599 160.398 73.5448C160.452 73.4905 160.482 73.4302 160.482 73.3579C160.482 73.2433 160.416 73.1529 160.29 73.0805C160.164 73.0142 159.991 72.9539 159.781 72.9117C159.571 72.8635 159.343 72.8152 159.092 72.767C158.84 72.7127 158.594 72.6464 158.337 72.562C158.085 72.4776 157.851 72.3631 157.641 72.2244C157.432 72.0857 157.264 71.8988 157.132 71.6697C157.006 71.4406 156.94 71.1512 156.94 70.8136C156.94 70.4157 157.054 70.0539 157.276 69.7284C157.498 69.4028 157.827 69.1375 158.271 68.9446C158.714 68.7517 159.259 68.6492 159.919 68.6492C160.35 68.6492 160.776 68.6974 161.195 68.7878C161.615 68.8783 161.992 69.023 162.328 69.2099L161.68 70.7774C161.363 70.6207 161.057 70.5001 160.764 70.4217C160.47 70.3433 160.182 70.3011 159.901 70.3011C159.691 70.3011 159.529 70.3192 159.409 70.3554C159.289 70.3916 159.199 70.4398 159.152 70.5001C159.104 70.5604 159.074 70.6267 159.074 70.699C159.074 70.8076 159.14 70.898 159.265 70.9583C159.391 71.0246 159.565 71.0789 159.775 71.1211C159.985 71.1633 160.218 71.2115 160.47 71.2597C160.722 71.308 160.973 71.3743 161.225 71.4587C161.477 71.5431 161.704 71.6577 161.914 71.7963C162.124 71.935 162.292 72.1219 162.424 72.345C162.549 72.5741 162.615 72.8514 162.615 73.189C162.615 73.5809 162.501 73.9427 162.28 74.2682C162.058 74.5938 161.728 74.8591 161.291 75.0581C160.853 75.257 160.302 75.3595 159.637 75.3595V75.3535Z" fill="white"/>
<path d="M166.672 75.3536C166.163 75.3536 165.69 75.2752 165.252 75.1124C164.815 74.9496 164.437 74.7205 164.119 74.4191C163.802 74.1176 163.55 73.7619 163.376 73.3519C163.203 72.9419 163.113 72.4898 163.113 71.9954C163.113 71.501 163.203 71.0488 163.376 70.6389C163.55 70.2289 163.802 69.8732 164.119 69.5717C164.437 69.2703 164.815 69.0412 165.252 68.8784C165.69 68.7156 166.163 68.6372 166.672 68.6372C167.302 68.6372 167.853 68.7457 168.338 68.9688C168.824 69.1919 169.219 69.5054 169.537 69.9214L168.176 71.1453C167.991 70.9041 167.781 70.7233 167.553 70.5906C167.326 70.458 167.068 70.3917 166.78 70.3917C166.552 70.3917 166.349 70.4278 166.169 70.5002C165.989 70.5725 165.827 70.6811 165.702 70.8197C165.57 70.9584 165.468 71.1332 165.396 71.3322C165.324 71.5312 165.288 71.7542 165.288 71.9954C165.288 72.2365 165.324 72.4596 165.396 72.6586C165.468 72.8575 165.57 73.0264 165.702 73.165C165.833 73.3037 165.989 73.4122 166.169 73.4846C166.349 73.5569 166.552 73.5931 166.78 73.5931C167.068 73.5931 167.326 73.5268 167.553 73.3941C167.781 73.2615 167.991 73.0746 168.176 72.8395L169.537 74.0634C169.219 74.4733 168.818 74.7929 168.338 75.0159C167.853 75.239 167.302 75.3536 166.672 75.3536Z" fill="white"/>
<path d="M173.282 75.3536C172.306 75.3536 171.538 75.0883 170.993 74.5517C170.448 74.0212 170.172 73.2735 170.172 72.3089V68.7759H172.324V72.2486C172.324 72.737 172.413 73.0867 172.587 73.2916C172.761 73.4966 173.001 73.5991 173.3 73.5991C173.6 73.5991 173.846 73.4966 174.019 73.2916C174.193 73.0867 174.277 72.737 174.277 72.2486V68.7759H176.393V72.3089C176.393 73.2675 176.117 74.0151 175.572 74.5517C175.026 75.0823 174.259 75.3536 173.282 75.3536Z" fill="white"/>
<path d="M179.706 73.5748H182.901V75.2087H177.591V68.7817H182.787V70.4156H179.712V73.5748H179.706ZM179.563 71.1692H182.409V72.7308H179.563V71.1692Z" fill="white"/>
<path d="M183.973 75.2087V68.7817H186.125V73.5326H189.007V75.2147H183.967L183.973 75.2087Z" fill="white"/>
<path d="M189.307 75.2087L192.099 68.7817H194.215L197.007 75.2087H194.778L192.717 69.8067H193.556L191.494 75.2087H189.301H189.307ZM190.967 74.0873L191.512 72.5258H194.449L194.994 74.0873H190.961H190.967Z" fill="white"/>
<path d="M200.279 75.2087V68.7817H203.354C203.953 68.7817 204.468 68.8782 204.9 69.0772C205.331 69.2761 205.673 69.5535 205.907 69.9152C206.146 70.2769 206.26 70.711 206.26 71.2054C206.26 71.6998 206.14 72.1279 205.907 72.4896C205.667 72.8513 205.331 73.1287 204.9 73.3276C204.462 73.5266 203.947 73.6291 203.354 73.6291H201.472L202.431 72.7006V75.2087H200.279ZM202.431 72.9418L201.472 71.959H203.216C203.515 71.959 203.737 71.8927 203.875 71.7541C204.019 71.6214 204.091 71.4345 204.091 71.2054C204.091 70.9763 204.019 70.7894 203.875 70.6568C203.731 70.5241 203.509 70.4578 203.216 70.4578H201.472L202.431 69.4751V72.9478V72.9418Z" fill="white"/>
<path d="M207.111 75.2087V68.7817H210.185C210.785 68.7817 211.3 68.8782 211.731 69.0772C212.163 69.2761 212.505 69.5535 212.738 69.9152C212.978 70.2769 213.092 70.711 213.092 71.2054C213.092 71.6998 212.972 72.1279 212.738 72.4836C212.499 72.8393 212.163 73.1166 211.731 73.3035C211.294 73.4965 210.779 73.5869 210.185 73.5869H208.304L209.262 72.6946V75.2027H207.111V75.2087ZM209.262 72.9418L208.304 71.959H210.048C210.347 71.959 210.569 71.8927 210.707 71.7541C210.851 71.6214 210.922 71.4345 210.922 71.2054C210.922 70.9763 210.851 70.7894 210.707 70.6568C210.563 70.5241 210.341 70.4578 210.048 70.4578H208.304L209.262 69.4751V72.9478V72.9418ZM210.934 75.2087L209.364 72.8694H211.648L213.236 75.2087H210.934Z" fill="white"/>
<path d="M217.323 75.3535C216.801 75.3535 216.316 75.2691 215.878 75.1063C215.435 74.9435 215.057 74.7084 214.734 74.4009C214.41 74.0995 214.159 73.7437 213.979 73.3338C213.799 72.9238 213.709 72.4776 213.709 71.9953C213.709 71.513 213.799 71.0548 213.979 70.6508C214.159 70.2469 214.41 69.8912 214.734 69.5837C215.057 69.2822 215.441 69.0471 215.878 68.8783C216.322 68.7155 216.801 68.6311 217.317 68.6311C217.832 68.6311 218.323 68.7155 218.761 68.8783C219.198 69.0411 219.582 69.2762 219.9 69.5837C220.223 69.8851 220.475 70.2409 220.655 70.6508C220.834 71.0608 220.924 71.507 220.924 71.9953C220.924 72.4837 220.834 72.9238 220.655 73.3338C220.475 73.7437 220.223 74.0995 219.9 74.4009C219.576 74.7024 219.198 74.9375 218.761 75.1063C218.323 75.2691 217.844 75.3535 217.329 75.3535H217.323ZM217.317 73.599C217.52 73.599 217.706 73.5629 217.88 73.4905C218.054 73.4182 218.204 73.3096 218.335 73.171C218.467 73.0323 218.569 72.8635 218.641 72.6645C218.713 72.4656 218.749 72.2425 218.749 71.9893C218.749 71.7361 218.713 71.513 218.641 71.314C218.569 71.1151 218.467 70.9463 218.335 70.8076C218.204 70.6689 218.054 70.5664 217.88 70.4881C217.706 70.4157 217.52 70.3795 217.317 70.3795C217.113 70.3795 216.927 70.4157 216.753 70.4881C216.58 70.5604 216.43 70.6689 216.298 70.8076C216.166 70.9463 216.064 71.1151 215.992 71.314C215.92 71.513 215.884 71.7361 215.884 71.9893C215.884 72.2425 215.92 72.4656 215.992 72.6645C216.064 72.8635 216.166 73.0323 216.298 73.171C216.43 73.3096 216.58 73.4121 216.753 73.4905C216.927 73.5629 217.113 73.599 217.317 73.599Z" fill="white"/>
<path d="M223.999 75.2087H221.847V68.7817H227.043V70.4156H224.005V75.2087H223.999ZM223.849 71.5189H226.659V73.1528H223.849V71.5189Z" fill="white"/>
<path d="M230.045 73.5748H233.239V75.2087H227.93V68.7817H233.125V70.4156H230.051V73.5748H230.045ZM229.901 71.1692H232.748V72.7308H229.901V71.1692Z" fill="white"/>
<path d="M236.685 75.3535C236.152 75.3535 235.63 75.2932 235.133 75.1726C234.636 75.052 234.222 74.8892 233.898 74.6963L234.594 73.1167C234.899 73.2915 235.235 73.4362 235.612 73.5448C235.984 73.6533 236.349 73.7075 236.703 73.7075C236.913 73.7075 237.075 73.6955 237.188 73.6653C237.308 73.6352 237.392 73.599 237.446 73.5448C237.5 73.4905 237.53 73.4302 237.53 73.3579C237.53 73.2433 237.464 73.1529 237.338 73.0805C237.212 73.0142 237.039 72.9539 236.829 72.9117C236.619 72.8635 236.391 72.8152 236.14 72.767C235.888 72.7127 235.642 72.6464 235.385 72.562C235.133 72.4776 234.899 72.3631 234.689 72.2244C234.48 72.0857 234.312 71.8988 234.18 71.6697C234.054 71.4406 233.988 71.1512 233.988 70.8136C233.988 70.4157 234.102 70.0539 234.324 69.7284C234.546 69.4028 234.875 69.1375 235.319 68.9446C235.762 68.7517 236.307 68.6492 236.967 68.6492C237.398 68.6492 237.824 68.6974 238.243 68.7878C238.663 68.8783 239.04 69.023 239.376 69.2099L238.729 70.7774C238.411 70.6207 238.105 70.5001 237.812 70.4217C237.518 70.3433 237.23 70.3011 236.949 70.3011C236.739 70.3011 236.577 70.3192 236.457 70.3554C236.337 70.3916 236.248 70.4398 236.2 70.5001C236.152 70.5604 236.122 70.6267 236.122 70.699C236.122 70.8076 236.188 70.898 236.313 70.9583C236.439 71.0246 236.613 71.0789 236.823 71.1211C237.033 71.1633 237.266 71.2115 237.518 71.2597C237.77 71.308 238.021 71.3743 238.273 71.4587C238.525 71.5431 238.753 71.6577 238.962 71.7963C239.172 71.935 239.34 72.1219 239.472 72.345C239.597 72.5741 239.663 72.8514 239.663 73.189C239.663 73.5809 239.55 73.9427 239.328 74.2682C239.106 74.5938 238.776 74.8591 238.339 75.0581C237.902 75.257 237.35 75.3595 236.685 75.3595V75.3535Z" fill="white"/>
<path d="M240.526 75.2087V68.7817H242.678V75.2087H240.526Z" fill="white"/>
<path d="M247.232 75.3535C246.711 75.3535 246.225 75.2691 245.788 75.1063C245.345 74.9435 244.967 74.7084 244.643 74.4009C244.32 74.0995 244.068 73.7437 243.888 73.3338C243.709 72.9238 243.619 72.4776 243.619 71.9953C243.619 71.513 243.709 71.0548 243.888 70.6508C244.068 70.2469 244.32 69.8912 244.643 69.5837C244.967 69.2822 245.351 69.0471 245.788 68.8783C246.231 68.7155 246.711 68.6311 247.226 68.6311C247.742 68.6311 248.233 68.7155 248.67 68.8783C249.108 69.0411 249.491 69.2762 249.809 69.5837C250.133 69.8851 250.384 70.2409 250.564 70.6508C250.744 71.0608 250.834 71.507 250.834 71.9953C250.834 72.4837 250.744 72.9238 250.564 73.3338C250.384 73.7437 250.133 74.0995 249.809 74.4009C249.485 74.7024 249.108 74.9375 248.67 75.1063C248.233 75.2691 247.754 75.3535 247.238 75.3535H247.232ZM247.22 73.599C247.424 73.599 247.61 73.5629 247.784 73.4905C247.957 73.4182 248.107 73.3096 248.239 73.171C248.371 73.0323 248.473 72.8635 248.545 72.6645C248.617 72.4656 248.653 72.2425 248.653 71.9893C248.653 71.7361 248.617 71.513 248.545 71.314C248.473 71.1151 248.371 70.9463 248.239 70.8076C248.107 70.6689 247.957 70.5664 247.784 70.4881C247.61 70.4157 247.424 70.3795 247.22 70.3795C247.016 70.3795 246.831 70.4157 246.657 70.4881C246.483 70.5604 246.333 70.6689 246.202 70.8076C246.07 70.9463 245.968 71.1151 245.896 71.314C245.824 71.513 245.788 71.7361 245.788 71.9893C245.788 72.2425 245.824 72.4656 245.896 72.6645C245.968 72.8635 246.07 73.0323 246.202 73.171C246.333 73.3096 246.483 73.4121 246.657 73.4905C246.831 73.5629 247.016 73.599 247.22 73.599Z" fill="white"/>
<path d="M251.751 75.2087V68.7817H253.525L256.773 72.6946H255.952V68.7817H258.049V75.2087H256.281L253.033 71.2959H253.854V75.2087H251.757H251.751Z" fill="white"/>
<path d="M258.57 75.2087L261.363 68.7817H263.478L266.271 75.2087H264.042L261.98 69.8067H262.819L260.758 75.2087H258.564H258.57ZM260.23 74.0873L260.776 72.5258H263.712L264.258 74.0873H260.224H260.23Z" fill="white"/>
<path d="M266.798 75.2087V68.7817H268.95V73.5326H271.832V75.2147H266.792L266.798 75.2087Z" fill="white"/>
<path d="M150.882 84.8552V78.4282H154.028C154.741 78.4282 155.364 78.5609 155.909 78.8201C156.455 79.0794 156.874 79.4471 157.18 79.9234C157.486 80.3997 157.635 80.9725 157.635 81.6296C157.635 82.2868 157.486 82.8716 157.18 83.354C156.874 83.8363 156.455 84.2041 155.909 84.4633C155.364 84.7226 154.741 84.8552 154.028 84.8552H150.882ZM153.033 83.1671H153.938C154.243 83.1671 154.507 83.1068 154.735 82.9922C154.963 82.8777 155.142 82.7028 155.268 82.4737C155.394 82.2446 155.46 81.9612 155.46 81.6357C155.46 81.3101 155.394 81.0328 155.268 80.8097C155.142 80.5806 154.963 80.4118 154.735 80.2972C154.507 80.1827 154.238 80.1224 153.938 80.1224H153.033V83.1731V83.1671Z" fill="white"/>
<path d="M160.674 83.2213H163.868V84.8552H158.558V78.4282H163.754V80.0621H160.68V83.2213H160.674ZM160.53 80.8157H163.376V82.3773H160.53V80.8157Z" fill="white"/>
<path d="M167.619 84.8552V78.4282H169.393L171.946 82.6244H171.017L173.498 78.4282H175.272L175.29 84.8552H173.33L173.312 81.4005H173.624L171.928 84.2764H170.981L169.213 81.4005H169.597V84.8552H167.637H167.619Z" fill="white"/>
<path d="M175.805 84.8552L178.598 78.4282H180.713L183.506 84.8552H181.277L179.215 79.4532H180.054L177.993 84.8552H175.799H175.805ZM177.465 83.7338L178.011 82.1723H180.947L181.492 83.7338H177.459H177.465Z" fill="white"/>
<path d="M184.033 84.8552V78.4282H185.807L189.055 82.3411H188.234V78.4282H190.332V84.8552H188.564L185.316 80.9423H186.137V84.8552H184.039H184.033Z" fill="white"/>
<path d="M193.699 83.2213H196.894V84.8552H191.584V78.4282H196.78V80.0621H193.705V83.2213H193.699ZM193.556 80.8157H196.402V82.3773H193.556V80.8157Z" fill="white"/>
<path d="M199.644 84.9999C199.147 84.9999 198.697 84.9215 198.296 84.7587C197.894 84.5959 197.559 84.3608 197.289 84.0473L198.446 82.6727C198.613 82.8777 198.781 83.0404 198.949 83.1429C199.111 83.2515 199.285 83.3057 199.458 83.3057C199.92 83.3057 200.154 83.0404 200.154 82.5039V80.0621H197.984V78.4282H202.281V82.3773C202.281 83.2575 202.053 83.9147 201.604 84.3487C201.154 84.7828 200.501 84.9999 199.644 84.9999Z" fill="white"/>
<path d="M206.769 85C206.248 85 205.763 84.9156 205.325 84.7528C204.882 84.59 204.504 84.3549 204.181 84.0474C203.857 83.7459 203.605 83.3902 203.426 82.9802C203.246 82.5703 203.156 82.1241 203.156 81.6418C203.156 81.1595 203.246 80.7013 203.426 80.2973C203.605 79.8934 203.857 79.5377 204.181 79.2302C204.504 78.9287 204.888 78.6936 205.325 78.5248C205.769 78.362 206.248 78.2776 206.763 78.2776C207.279 78.2776 207.77 78.362 208.208 78.5248C208.645 78.6876 209.029 78.9227 209.346 79.2302C209.67 79.5316 209.922 79.8873 210.101 80.2973C210.281 80.7073 210.371 81.1534 210.371 81.6418C210.371 82.1302 210.281 82.5703 210.101 82.9802C209.922 83.3902 209.67 83.7459 209.346 84.0474C209.023 84.3488 208.645 84.584 208.208 84.7528C207.77 84.9156 207.291 85 206.775 85H206.769ZM206.758 83.2455C206.961 83.2455 207.147 83.2093 207.321 83.137C207.495 83.0647 207.644 82.9561 207.776 82.8175C207.908 82.6788 208.01 82.51 208.082 82.311C208.154 82.1121 208.19 81.889 208.19 81.6358C208.19 81.3825 208.154 81.1595 208.082 80.9605C208.01 80.7616 207.908 80.5927 207.776 80.4541C207.644 80.3154 207.495 80.2129 207.321 80.1345C207.147 80.0622 206.961 80.026 206.758 80.026C206.554 80.026 206.368 80.0622 206.194 80.1345C206.02 80.2069 205.871 80.3154 205.739 80.4541C205.607 80.5927 205.505 80.7616 205.433 80.9605C205.361 81.1595 205.325 81.3825 205.325 81.6358C205.325 81.889 205.361 82.1121 205.433 82.311C205.505 82.51 205.607 82.6788 205.739 82.8175C205.871 82.9561 206.02 83.0586 206.194 83.137C206.368 83.2093 206.554 83.2455 206.758 83.2455Z" fill="white"/>
<path d="M31.3452 59.9372L44.7269 33.2708L58.1146 59.9372H78.4598L56.7722 19H32.6816L11 59.9372H31.3452Z" fill="white"/>
<path d="M224.885 59.9372L238.267 33.2708L251.655 59.9372H272L250.312 19H226.222L204.54 59.9372H224.885Z" fill="white"/>
<path d="M106.967 19H86.6218V59.9372H106.967V19Z" fill="white"/>
<path d="M139.621 44.8525H106.697V59.9312H139.621V44.8525Z" fill="white"/>
<path d="M170.675 19H150.33V59.9372H170.675V19Z" fill="white"/>
<path d="M203.336 19H170.412V34.0787H203.336V19Z" fill="white"/>
</g>
<defs>
<clipPath id="clip0_34_74">
<rect width="261" height="66" fill="white" transform="translate(11 19)"/>
</clipPath>
</defs>
</svg>
