<svg width="19" height="20" viewBox="0 0 19 20" fill="none" xmlns="http://www.w3.org/2000/svg">
<path d="M14.4612 3.51886C13.8545 3.51886 13.3582 4.03634 13.3582 4.66881C13.3582 5.30129 13.8545 5.83027 14.4612 5.83027C15.0679 5.83027 15.5753 5.31279 15.5753 4.66881C15.5753 4.02484 15.0789 3.51886 14.4612 3.51886Z" fill="#F16430"/>
<path d="M9.53055 5.00238C6.9604 5.00238 4.87561 7.17579 4.87561 9.85518C4.87561 12.5346 6.9604 14.708 9.53055 14.708C12.1007 14.708 14.1855 12.5346 14.1855 9.85518C14.1855 7.17579 12.1007 5.00238 9.53055 5.00238ZM9.53055 12.9716C7.88698 12.9716 6.55227 11.5801 6.55227 9.86668C6.55227 8.15325 7.88698 6.76181 9.53055 6.76181C11.1741 6.76181 12.5088 8.15325 12.5088 9.86668C12.5088 11.5801 11.1741 12.9716 9.53055 12.9716Z" fill="#F16430"/>
<path d="M13.2257 19.7102H5.68078C2.54808 19.7102 0 17.0538 0 13.7879V5.92226C0 2.65639 2.54808 0 5.68078 0H13.2257C16.3585 0 18.9065 2.65639 18.9065 5.92226V13.7879C18.9065 17.0538 16.3585 19.7102 13.2257 19.7102ZM5.68078 1.85143C3.52981 1.85143 1.77593 3.67985 1.77593 5.92226V13.7879C1.77593 16.0304 3.52981 17.8588 5.68078 17.8588H13.2257C15.3767 17.8588 17.1306 16.0304 17.1306 13.7879V5.92226C17.1306 3.67985 15.3767 1.85143 13.2257 1.85143H5.68078Z" fill="#F16430"/>
</svg>
