<svg width="100" height="33" viewBox="0 0 100 33" fill="none" xmlns="http://www.w3.org/2000/svg">
<path d="M53.5853 26.2562L54.5102 24.1403H55.2115L56.1365 26.2562H55.3989L54.7158 24.4788H54.9939L54.3107 26.2562H53.5853ZM54.1354 25.8874L54.3168 25.3736H55.2901L55.4715 25.8874H54.1354ZM57.3151 26.3046C57.1458 26.3046 56.9886 26.2784 56.8435 26.226C56.7005 26.1716 56.5755 26.095 56.4687 25.9963C56.3639 25.8975 56.2823 25.7806 56.2239 25.6456C56.1654 25.5106 56.1362 25.3615 56.1362 25.1982C56.1362 25.035 56.1654 24.8859 56.2239 24.7509C56.2823 24.6159 56.3639 24.499 56.4687 24.4002C56.5755 24.3015 56.7005 24.2259 56.8435 24.1735C56.9886 24.1191 57.1458 24.0919 57.3151 24.0919C57.5227 24.0919 57.706 24.1282 57.8652 24.2007C58.0265 24.2733 58.1595 24.3781 58.2642 24.5151L57.8139 24.9171C57.7514 24.8385 57.6819 24.7781 57.6053 24.7358C57.5307 24.6914 57.4461 24.6693 57.3514 24.6693C57.2768 24.6693 57.2093 24.6813 57.1488 24.7055C57.0884 24.7297 57.036 24.765 56.9917 24.8113C56.9493 24.8577 56.9161 24.9141 56.8919 24.9806C56.8677 25.0451 56.8556 25.1176 56.8556 25.1982C56.8556 25.2789 56.8677 25.3524 56.8919 25.4189C56.9161 25.4834 56.9493 25.5388 56.9917 25.5852C57.036 25.6315 57.0884 25.6668 57.1488 25.691C57.2093 25.7151 57.2768 25.7272 57.3514 25.7272C57.4461 25.7272 57.5307 25.7061 57.6053 25.6638C57.6819 25.6194 57.7514 25.558 57.8139 25.4794L58.2642 25.8814C58.1595 26.0164 58.0265 26.1212 57.8652 26.1958C57.706 26.2683 57.5227 26.3046 57.3151 26.3046ZM58.211 26.2562L59.1359 24.1403H59.8372L60.7622 26.2562H60.0247L59.3415 24.4788H59.6196L58.9364 26.2562H58.211ZM58.7611 25.8874L58.9425 25.3736H59.9158L60.0972 25.8874H58.7611ZM60.8761 26.2562V24.1403H61.9189C62.1547 24.1403 62.3623 24.1836 62.5416 24.2702C62.721 24.3549 62.861 24.4758 62.9618 24.633C63.0626 24.7902 63.1129 24.9776 63.1129 25.1952C63.1129 25.4149 63.0626 25.6043 62.9618 25.7635C62.861 25.9207 62.721 26.0426 62.5416 26.1293C62.3623 26.2139 62.1547 26.2562 61.9189 26.2562H60.8761ZM61.5894 25.7H61.8887C61.9895 25.7 62.0771 25.6809 62.1517 25.6426C62.2283 25.6043 62.2877 25.5479 62.33 25.4733C62.3723 25.3967 62.3935 25.304 62.3935 25.1952C62.3935 25.0884 62.3723 24.9977 62.33 24.9232C62.2877 24.8486 62.2283 24.7922 62.1517 24.7539C62.0771 24.7156 61.9895 24.6965 61.8887 24.6965H61.5894V25.7ZM64.0263 24.9262H64.9695V25.4401H64.0263V24.9262ZM64.0747 25.7182H65.1327V26.2562H63.3734V24.1403H65.0934V24.6783H64.0747V25.7182ZM65.4073 26.2562V24.1403H65.9937L66.8401 25.5217H66.5318L67.354 24.1403H67.9404L67.9465 26.2562H67.2966L67.2905 25.1197H67.3933L66.831 26.0658H66.5167L65.9303 25.1197H66.0572V26.2562H65.4073ZM68.2914 26.2562V24.1403H69.0047V26.2562H68.2914ZM68.3307 23.968L68.7297 23.4843H69.3796L68.7841 23.968H68.3307ZM69.1184 26.2562L70.0434 24.1403H70.7447L71.6697 26.2562H70.9321L70.249 24.4788H70.5271L69.8439 26.2562H69.1184ZM69.6686 25.8874L69.8499 25.3736H70.8233L71.0047 25.8874H69.6686ZM73.784 26.3046C73.6147 26.3046 73.4576 26.2784 73.3125 26.226C73.1694 26.1716 73.0444 26.095 72.9376 25.9963C72.8328 25.8975 72.7512 25.7806 72.6928 25.6456C72.6344 25.5106 72.6051 25.3615 72.6051 25.1982C72.6051 25.035 72.6344 24.8859 72.6928 24.7509C72.7512 24.6159 72.8328 24.499 72.9376 24.4002C73.0444 24.3015 73.1694 24.2259 73.3125 24.1735C73.4576 24.1191 73.6147 24.0919 73.784 24.0919C73.9916 24.0919 74.175 24.1282 74.3342 24.2007C74.4954 24.2733 74.6284 24.3781 74.7332 24.5151L74.2828 24.9171C74.2203 24.8385 74.1508 24.7781 74.0742 24.7358C73.9996 24.6914 73.915 24.6693 73.8203 24.6693C73.7457 24.6693 73.6782 24.6813 73.6178 24.7055C73.5573 24.7297 73.5049 24.765 73.4606 24.8113C73.4183 24.8577 73.385 24.9141 73.3608 24.9806C73.3366 25.0451 73.3246 25.1176 73.3246 25.1982C73.3246 25.2789 73.3366 25.3524 73.3608 25.4189C73.385 25.4834 73.4183 25.5388 73.4606 25.5852C73.5049 25.6315 73.5573 25.6668 73.6178 25.691C73.6782 25.7151 73.7457 25.7272 73.8203 25.7272C73.915 25.7272 73.9996 25.7061 74.0742 25.6638C74.1508 25.6194 74.2203 25.558 74.2828 25.4794L74.7332 25.8814C74.6284 26.0164 74.4954 26.1212 74.3342 26.1958C74.175 26.2683 73.9916 26.3046 73.784 26.3046ZM75.5921 24.9262H76.5352V25.4401H75.5921V24.9262ZM75.6404 25.7182H76.6984V26.2562H74.9392V24.1403H76.6591V24.6783H75.6404V25.7182ZM76.973 26.2562V24.1403H77.9917C78.1892 24.1403 78.3595 24.1725 78.5026 24.237C78.6477 24.3015 78.7595 24.3942 78.8381 24.5151C78.9167 24.634 78.956 24.7751 78.956 24.9383C78.956 25.1015 78.9167 25.2426 78.8381 25.3615C78.7595 25.4784 78.6477 25.568 78.5026 25.6305C78.3595 25.693 78.1892 25.7242 77.9917 25.7242H77.369L77.6864 25.431V26.2562H76.973ZM78.2396 26.2562L77.7197 25.4854H78.4754L79.0013 26.2562H78.2396ZM77.6864 25.5096L77.369 25.1862H77.9464C78.0451 25.1862 78.1177 25.164 78.164 25.1197C78.2124 25.0753 78.2366 25.0149 78.2366 24.9383C78.2366 24.8617 78.2124 24.8013 78.164 24.7569C78.1177 24.7126 78.0451 24.6904 77.9464 24.6904H77.369L77.6864 24.367V25.5096ZM79.6553 26.2562V24.6934H79.0357V24.1403H80.9884V24.6934H80.3687V26.2562H79.6553ZM81.1737 26.2562V24.1403H81.8871V26.2562H81.1737ZM82.8955 25.0411H83.8265V25.5791H82.8955V25.0411ZM82.9438 26.2562H82.2305V24.1403H83.9504V24.6783H82.9438V26.2562ZM84.1758 26.2562V24.1403H84.8892V26.2562H84.1758ZM86.3269 26.3046C86.1576 26.3046 86.0004 26.2784 85.8553 26.226C85.7122 26.1716 85.5873 26.095 85.4805 25.9963C85.3757 25.8975 85.2941 25.7806 85.2356 25.6456C85.1772 25.5106 85.148 25.3615 85.148 25.1982C85.148 25.035 85.1772 24.8859 85.2356 24.7509C85.2941 24.6159 85.3757 24.499 85.4805 24.4002C85.5873 24.3015 85.7122 24.2259 85.8553 24.1735C86.0004 24.1191 86.1576 24.0919 86.3269 24.0919C86.5344 24.0919 86.7178 24.1282 86.877 24.2007C87.0382 24.2733 87.1712 24.3781 87.276 24.5151L86.8256 24.9171C86.7631 24.8385 86.6936 24.7781 86.617 24.7358C86.5425 24.6914 86.4578 24.6693 86.3631 24.6693C86.2886 24.6693 86.2211 24.6813 86.1606 24.7055C86.1001 24.7297 86.0478 24.765 86.0034 24.8113C85.9611 24.8577 85.9278 24.9141 85.9037 24.9806C85.8795 25.0451 85.8674 25.1176 85.8674 25.1982C85.8674 25.2789 85.8795 25.3524 85.9037 25.4189C85.9278 25.4834 85.9611 25.5388 86.0034 25.5852C86.0478 25.6315 86.1001 25.6668 86.1606 25.691C86.2211 25.7151 86.2886 25.7272 86.3631 25.7272C86.4578 25.7272 86.5425 25.7061 86.617 25.6638C86.6936 25.6194 86.7631 25.558 86.8256 25.4794L87.276 25.8814C87.1712 26.0164 87.0382 26.1212 86.877 26.1958C86.7178 26.2683 86.5344 26.3046 86.3269 26.3046ZM87.2227 26.2562L88.1477 24.1403H88.849L89.774 26.2562H89.0364L88.3533 24.4788H88.6314L87.9482 26.2562H87.2227ZM87.7729 25.8874L87.9543 25.3736H88.9276L89.109 25.8874H87.7729ZM89.8878 26.2562V24.1403H90.9307C91.1665 24.1403 91.374 24.1836 91.5534 24.2702C91.7327 24.3549 91.8728 24.4758 91.9736 24.633C92.0743 24.7902 92.1247 24.9776 92.1247 25.1952C92.1247 25.4149 92.0743 25.6043 91.9736 25.7635C91.8728 25.9207 91.7327 26.0426 91.5534 26.1293C91.374 26.2139 91.1665 26.2562 90.9307 26.2562H89.8878ZM90.6012 25.7H90.9005C91.0012 25.7 91.0889 25.6809 91.1635 25.6426C91.24 25.6043 91.2995 25.5479 91.3418 25.4733C91.3841 25.3967 91.4053 25.304 91.4053 25.1952C91.4053 25.0884 91.3841 24.9977 91.3418 24.9232C91.2995 24.8486 91.24 24.7922 91.1635 24.7539C91.0889 24.7156 91.0012 24.6965 90.9005 24.6965H90.6012V25.7ZM92.1259 26.2562L93.0509 24.1403H93.7522L94.6772 26.2562H93.9396L93.2565 24.4788H93.5346L92.8514 26.2562H92.1259ZM92.6761 25.8874L92.8574 25.3736H93.8308L94.0122 25.8874H92.6761Z" fill="white"/>
<path d="M53.815 29.2829V27.1669H54.8579C55.0936 27.1669 55.3012 27.2103 55.4806 27.2969C55.6599 27.3816 55.8 27.5025 55.9007 27.6597C56.0015 27.8168 56.0519 28.0043 56.0519 28.2219C56.0519 28.4416 56.0015 28.631 55.9007 28.7902C55.8 28.9474 55.6599 29.0693 55.4806 29.1559C55.3012 29.2406 55.0936 29.2829 54.8579 29.2829H53.815ZM54.5284 28.7267H54.8276C54.9284 28.7267 55.0161 28.7076 55.0906 28.6693C55.1672 28.631 55.2266 28.5746 55.269 28.5C55.3113 28.4234 55.3324 28.3307 55.3324 28.2219C55.3324 28.1151 55.3113 28.0244 55.269 27.9498C55.2266 27.8753 55.1672 27.8189 55.0906 27.7806C55.0161 27.7423 54.9284 27.7231 54.8276 27.7231H54.5284V28.7267ZM56.9653 27.9529H57.9084V28.4667H56.9653V27.9529ZM57.0136 28.7448H58.0716V29.2829H56.3123V27.1669H58.0323V27.705H57.0136V28.7448ZM59.2525 29.2829V27.1669H59.8389L60.6853 28.5484H60.377L61.1992 27.1669H61.7856L61.7916 29.2829H61.1417L61.1357 28.1463H61.2385L60.6762 29.0925H60.3619L59.7754 28.1463H59.9024V29.2829H59.2525ZM61.9068 29.2829L62.8318 27.1669H63.5331L64.4581 29.2829H63.7205L63.0373 27.5055H63.3154L62.6323 29.2829H61.9068ZM62.457 28.9141L62.6383 28.4002H63.6117L63.793 28.9141H62.457ZM64.5719 29.2829V27.1669H65.1583L66.2344 28.4547H65.9624V27.1669H66.6576V29.2829H66.0712L64.9951 27.9952H65.2671V29.2829H64.5719ZM67.6543 27.9529H68.5974V28.4667H67.6543V27.9529ZM67.7026 28.7448H68.7606V29.2829H67.0014V27.1669H68.7213V27.705H67.7026V28.7448ZM69.5703 29.3313C69.405 29.3313 69.2559 29.3051 69.1229 29.2527C68.9899 29.1983 68.8791 29.1197 68.7904 29.0169L69.1743 28.5635C69.2307 28.632 69.2861 28.6844 69.3406 28.7207C69.395 28.7549 69.4514 28.772 69.5098 28.772C69.663 28.772 69.7396 28.6844 69.7396 28.5091V27.705H69.0201V27.1669H70.4439V28.4667C70.4439 28.7569 70.3693 28.9736 70.2202 29.1166C70.0711 29.2597 69.8544 29.3313 69.5703 29.3313ZM71.8834 29.3313C71.7101 29.3313 71.5499 29.3041 71.4028 29.2496C71.2577 29.1952 71.1317 29.1187 71.0249 29.0199C70.9181 28.9192 70.8345 28.8013 70.774 28.6662C70.7156 28.5312 70.6864 28.3841 70.6864 28.2249C70.6864 28.0637 70.7156 27.9166 70.774 27.7836C70.8345 27.6486 70.9181 27.5317 71.0249 27.4329C71.1317 27.3322 71.2577 27.2546 71.4028 27.2002C71.5499 27.1458 71.7091 27.1186 71.8804 27.1186C72.0537 27.1186 72.2129 27.1458 72.358 27.2002C72.5031 27.2546 72.629 27.3322 72.7358 27.4329C72.8426 27.5317 72.9252 27.6486 72.9837 27.7836C73.0441 27.9166 73.0744 28.0637 73.0744 28.2249C73.0744 28.3841 73.0441 28.5312 72.9837 28.6662C72.9252 28.8013 72.8426 28.9192 72.7358 29.0199C72.629 29.1187 72.5031 29.1952 72.358 29.2496C72.2129 29.3041 72.0547 29.3313 71.8834 29.3313ZM71.8804 28.7539C71.9469 28.7539 72.0083 28.7418 72.0648 28.7176C72.1232 28.6935 72.1736 28.6592 72.2159 28.6149C72.2602 28.5685 72.2945 28.5131 72.3187 28.4486C72.3429 28.3821 72.3549 28.3075 72.3549 28.2249C72.3549 28.1423 72.3429 28.0687 72.3187 28.0043C72.2945 27.9378 72.2602 27.8823 72.2159 27.838C72.1736 27.7917 72.1232 27.7564 72.0648 27.7322C72.0083 27.708 71.9469 27.6959 71.8804 27.6959C71.8139 27.6959 71.7514 27.708 71.693 27.7322C71.6365 27.7564 71.5861 27.7917 71.5418 27.838C71.4995 27.8823 71.4662 27.9378 71.4421 28.0043C71.4179 28.0687 71.4058 28.1423 71.4058 28.2249C71.4058 28.3075 71.4179 28.3821 71.4421 28.4486C71.4662 28.5131 71.4995 28.5685 71.5418 28.6149C71.5861 28.6592 71.6365 28.6935 71.693 28.7176C71.7514 28.7418 71.8139 28.7539 71.8804 28.7539Z" fill="white"/>
<path d="M65.5106 19.8253C67.0602 19.8253 68.3165 18.569 68.3165 17.0194C68.3165 15.4697 67.0602 14.2135 65.5106 14.2135C63.961 14.2135 62.7047 15.4697 62.7047 17.0194C62.7047 18.569 63.961 19.8253 65.5106 19.8253Z" fill="#F16430"/>
<path d="M12.7415 21.1592L17.3413 12.0516L21.9411 21.1592H28.9328L21.4811 7.17578H13.2015L5.74976 21.1592H12.7415Z" fill="white"/>
<path d="M79.2548 21.1592L83.8546 12.0516L88.4544 21.1592H95.4461L87.9944 7.17578H79.7148L72.2631 21.1592H79.2548Z" fill="white"/>
<path d="M38.7304 7.17578H31.7386V21.1592H38.7304V7.17578Z" fill="white"/>
<path d="M49.954 16.0073H38.6384V21.1591H49.954V16.0073Z" fill="white"/>
<path d="M60.6256 7.17578H53.6339V21.1592H60.6256V7.17578Z" fill="white"/>
<path d="M71.8491 7.17578H60.5336V12.3276H71.8491V7.17578Z" fill="white"/>
</svg>
