<svg width="50" height="50" viewBox="0 0 50 50" fill="none" xmlns="http://www.w3.org/2000/svg">
<path d="M27.3438 2.34375C27.3438 1.04492 26.2988 0 25 0C23.7012 0 22.6562 1.04492 22.6562 2.34375V10.1562C22.6562 11.4551 23.7012 12.5 25 12.5C26.2988 12.5 27.3438 11.4551 27.3438 10.1562V2.34375ZM18.1445 21.875H31.8555C32.5195 21.875 33.1055 22.2949 33.3301 22.9102L35.1855 28.125H14.8145L16.6797 22.9102C16.9043 22.2852 17.4902 21.875 18.1543 21.875H18.1445ZM10.791 20.8105L8.02734 28.5547C6.06445 29.3848 4.6875 31.3281 4.6875 33.5938V37.5V43.75V46.875C4.6875 48.6035 6.08398 50 7.8125 50H9.375C11.1035 50 12.5 48.6035 12.5 46.875V43.75H37.5V46.875C37.5 48.6035 38.8965 50 40.625 50H42.1875C43.916 50 45.3125 48.6035 45.3125 46.875V43.75V37.5V33.5938C45.3125 31.3281 43.9355 29.3848 41.9727 28.5547L39.209 20.8105C38.0957 17.7051 35.1562 15.625 31.8555 15.625H18.1445C14.8438 15.625 11.8945 17.7051 10.791 20.8105ZM12.5 33.5938C13.1216 33.5938 13.7177 33.8407 14.1573 34.2802C14.5968 34.7198 14.8438 35.3159 14.8438 35.9375C14.8438 36.5591 14.5968 37.1552 14.1573 37.5948C13.7177 38.0343 13.1216 38.2812 12.5 38.2812C11.8784 38.2812 11.2823 38.0343 10.8427 37.5948C10.4032 37.1552 10.1563 36.5591 10.1563 35.9375C10.1563 35.3159 10.4032 34.7198 10.8427 34.2802C11.2823 33.8407 11.8784 33.5938 12.5 33.5938ZM35.1562 35.9375C35.1562 35.3159 35.4032 34.7198 35.8427 34.2802C36.2823 33.8407 36.8784 33.5938 37.5 33.5938C38.1216 33.5938 38.7177 33.8407 39.1573 34.2802C39.5968 34.7198 39.8438 35.3159 39.8438 35.9375C39.8438 36.5591 39.5968 37.1552 39.1573 37.5948C38.7177 38.0343 38.1216 38.2812 37.5 38.2812C36.8784 38.2812 36.2823 38.0343 35.8427 37.5948C35.4032 37.1552 35.1562 36.5591 35.1562 35.9375ZM3.80859 3.80859C2.89063 4.72656 2.89063 6.21094 3.80859 7.11914L8.49609 11.8066C9.41406 12.7246 10.8984 12.7246 11.8066 11.8066C12.7148 10.8887 12.7246 9.4043 11.8066 8.49609L7.12891 3.80859C6.21094 2.89062 4.72656 2.89062 3.81836 3.80859H3.80859ZM42.8711 3.80859L38.1836 8.49609C37.2656 9.41406 37.2656 10.8984 38.1836 11.8066C39.1016 12.7148 40.5859 12.7246 41.4941 11.8066L46.1816 7.11914C47.0996 6.20117 47.0996 4.7168 46.1816 3.80859C45.2637 2.90039 43.7793 2.89062 42.8711 3.80859Z" fill="#284259"/>
</svg>
