<svg width="19" height="21" viewBox="0 0 19 21" fill="none" xmlns="http://www.w3.org/2000/svg">
<path d="M14.4612 3.86108C13.8545 3.86108 13.3582 4.37856 13.3582 5.01104C13.3582 5.64351 13.8545 6.17249 14.4612 6.17249C15.0679 6.17249 15.5753 5.65501 15.5753 5.01104C15.5753 4.36706 15.0789 3.86108 14.4612 3.86108Z" fill="white"/>
<path d="M9.53055 5.34473C6.9604 5.34473 4.87561 7.51814 4.87561 10.1975C4.87561 12.8769 6.9604 15.0503 9.53055 15.0503C12.1007 15.0503 14.1855 12.8769 14.1855 10.1975C14.1855 7.51814 12.1007 5.34473 9.53055 5.34473ZM9.53055 13.3139C7.88698 13.3139 6.55227 11.9225 6.55227 10.209C6.55227 8.4956 7.88698 7.10416 9.53055 7.10416C11.1741 7.10416 12.5088 8.4956 12.5088 10.209C12.5088 11.9225 11.1741 13.3139 9.53055 13.3139Z" fill="white"/>
<path d="M13.2257 20.0525H5.68078C2.54808 20.0525 0 17.3961 0 14.1302V6.26455C0 2.99868 2.54808 0.342285 5.68078 0.342285H13.2257C16.3585 0.342285 18.9065 2.99868 18.9065 6.26455V14.1302C18.9065 17.3961 16.3585 20.0525 13.2257 20.0525ZM5.68078 2.19371C3.52981 2.19371 1.77593 4.02214 1.77593 6.26455V14.1302C1.77593 16.3726 3.52981 18.2011 5.68078 18.2011H13.2257C15.3767 18.2011 17.1306 16.3726 17.1306 14.1302V6.26455C17.1306 4.02214 15.3767 2.19371 13.2257 2.19371H5.68078Z" fill="white"/>
</svg>
