<svg width="57" height="50" viewBox="0 0 57 50" fill="none" xmlns="http://www.w3.org/2000/svg">
<g clip-path="url(#clip0_25_43)">
<path d="M0 9.375H56.25C56.25 5.92773 53.4473 3.125 50 3.125H6.25C2.80273 3.125 0 5.92773 0 9.375ZM0 12.5V40.625C0 44.0723 2.80273 46.875 6.25 46.875H50C53.4473 46.875 56.25 44.0723 56.25 40.625V12.5H0ZM6.25 39.5801C6.25 36.6992 8.58398 34.375 11.4551 34.375H22.9199C25.8008 34.375 28.125 36.709 28.125 39.5801C28.125 40.1562 27.6562 40.625 27.0801 40.625H7.29492C6.71875 40.625 6.25 40.1562 6.25 39.5801ZM17.1875 18.75C18.8451 18.75 20.4348 19.4085 21.6069 20.5806C22.779 21.7527 23.4375 23.3424 23.4375 25C23.4375 26.6576 22.779 28.2473 21.6069 29.4194C20.4348 30.5915 18.8451 31.25 17.1875 31.25C15.5299 31.25 13.9402 30.5915 12.7681 29.4194C11.596 28.2473 10.9375 26.6576 10.9375 25C10.9375 23.3424 11.596 21.7527 12.7681 20.5806C13.9402 19.4085 15.5299 18.75 17.1875 18.75ZM34.375 20.3125C34.375 19.4531 35.0781 18.75 35.9375 18.75H48.4375C49.2969 18.75 50 19.4531 50 20.3125C50 21.1719 49.2969 21.875 48.4375 21.875H35.9375C35.0781 21.875 34.375 21.1719 34.375 20.3125ZM34.375 26.5625C34.375 25.7031 35.0781 25 35.9375 25H48.4375C49.2969 25 50 25.7031 50 26.5625C50 27.4219 49.2969 28.125 48.4375 28.125H35.9375C35.0781 28.125 34.375 27.4219 34.375 26.5625ZM34.375 32.8125C34.375 31.9531 35.0781 31.25 35.9375 31.25H48.4375C49.2969 31.25 50 31.9531 50 32.8125C50 33.6719 49.2969 34.375 48.4375 34.375H35.9375C35.0781 34.375 34.375 33.6719 34.375 32.8125Z" fill="#284259"/>
</g>
<defs>
<clipPath id="clip0_25_43">
<rect width="56.25" height="50" fill="white"/>
</clipPath>
</defs>
</svg>
