<svg width="44" height="50" viewBox="0 0 44 50" fill="none" xmlns="http://www.w3.org/2000/svg">
<g clip-path="url(#clip0_25_45)">
<path d="M34.1211 4.3555C34.6973 3.01761 34.2676 1.45511 33.086 0.595732C31.9043 -0.263643 30.293 -0.185518 29.1895 0.771513L4.18947 22.6465C3.21291 23.5059 2.86135 24.8828 3.32033 26.0938C3.77932 27.3047 4.95119 28.125 6.25002 28.125H17.1387L9.62893 45.6446C9.05275 46.9824 9.48244 48.5449 10.6641 49.4043C11.8457 50.2637 13.4571 50.1856 14.5606 49.2285L39.5606 27.3535C40.5371 26.4942 40.8887 25.1172 40.4297 23.9063C39.9707 22.6953 38.8086 21.8848 37.5 21.8848H26.6113L34.1211 4.3555Z" fill="#284259"/>
</g>
<defs>
<clipPath id="clip0_25_45">
<rect width="43.75" height="50" fill="white"/>
</clipPath>
</defs>
</svg>
