<svg width="17" height="22" viewBox="0 0 17 22" fill="none" xmlns="http://www.w3.org/2000/svg">
<path d="M17 8.79468C16.8372 8.80656 16.6743 8.81845 16.5115 8.81845C14.7203 8.81845 13.0485 7.83202 12.0715 6.19193V15.1292C12.0715 18.7778 9.36846 21.7371 6.03576 21.7371C2.70307 21.7371 0 18.7778 0 15.1292C0 11.4806 2.70307 8.52133 6.03576 8.52133C6.16603 8.52133 6.28544 8.53321 6.40485 8.5451V11.8015C6.28544 11.7896 6.15518 11.7658 6.03576 11.7658C4.33142 11.7658 2.95275 13.2752 2.95275 15.1411C2.95275 17.007 4.33142 18.5164 6.03576 18.5164C7.74011 18.5164 9.23819 17.0427 9.23819 15.1886L9.27075 0H12.1149C12.3863 2.7929 14.4381 4.97969 17 5.18173V8.80656" fill="white"/>
</svg>
